<?xml version="1.0" encoding="utf-8" ?><svg xmlns="http://www.w3.org/2000/svg" xmlns:xlink="http://www.w3.org/1999/xlink" width="1248" height="832" viewBox="0 0 1248 832"><path fill="#FEFFFF" d="M0 0L1248 0L1248 832L0 832L0 0Z"/><path fill="#2A424E" d="M732.463 335.268L734.054 335.719C738.745 335.84 743.437 335.854 748.129 335.761L751.484 335.981C752.344 338.235 753.574 342.626 754.567 344.289C764.088 350.562 766.714 360.32 765.513 371.232L766.27 373.521C785.065 373.273 803.863 373.318 822.657 373.657C822.607 375.178 822.469 376.805 822.655 378.292C821.94 382.938 822.543 388.188 822.598 393.015C822.678 401.702 822.712 410.389 822.701 419.076L822.657 420.653L787.253 421.116C790.226 428.665 793.969 436.087 797.007 443.958C790.193 444.416 780.503 444.076 773.269 444.209C770.07 436.21 766.705 428.278 763.177 420.419L741.898 420.423C736.997 428.486 734.475 428.748 725.366 429.143C720.792 434.435 717.639 436.766 710.451 437.174C709.79 439.102 709.109 440.987 708.585 442.959L706.55 444.202L704.386 444.405L703.511 444.098C701.521 444.2 699.034 444.1 697 444.079C695.673 443.825 694.359 444 693 444.086C690.694 444.21 688.388 444.351 686.084 444.51L684.529 442.892C690.707 429.241 696.654 415.487 702.366 401.634C701.749 400.317 701.114 399.009 700.461 397.711L701.198 397.614C702.006 398.82 701.964 399.07 703.134 399.789C705.229 397.198 707.992 389.478 709.176 386.13L710.474 383.592L712.971 377.277L713.739 375.325C718.183 364.568 725.396 347.247 730.703 336.216C731.391 335.845 731.978 335.529 732.463 335.268Z"/><path fill="#FEFFFF" d="M822.657 373.657C822.607 375.178 822.469 376.805 822.655 378.292C821.94 382.938 822.543 388.188 822.598 393.015C822.678 401.702 822.712 410.389 822.701 419.076L822.657 420.653L787.253 421.116L786.43 419.335C780.089 405.234 773.101 389.7 767.33 375.439L766.27 373.521C785.065 373.273 803.863 373.318 822.657 373.657Z"/><path fill="#0BA0D7" d="M822.657 373.657C822.607 375.178 822.469 376.805 822.655 378.292C822.495 377.834 821.979 376.899 821.736 376.422C817.489 374.644 775.204 375.504 767.33 375.439L766.27 373.521C785.065 373.273 803.863 373.318 822.657 373.657Z"/><path fill="#0BA0D7" d="M822.701 419.076L822.657 420.653L787.253 421.116L786.43 419.335C797.985 418.578 811.081 418.743 822.701 419.076Z"/><path fill="#FEFFFF" d="M717.682 420.446C724.952 420.518 732.221 420.551 739.491 420.546L741.898 420.423C736.997 428.486 734.475 428.748 725.366 429.143C720.792 434.435 717.639 436.766 710.451 437.174L711.734 434.604C714.217 429.414 715.961 425.918 717.682 420.446Z"/><path fill="#0BA0D7" d="M739.491 420.546L741.898 420.423C736.997 428.486 734.475 428.748 725.366 429.143C720.792 434.435 717.639 436.766 710.451 437.174L711.734 434.604C717.733 434.515 719.311 432.233 722.282 427.574C730.67 424.834 732.873 429.611 739.491 420.546Z"/><path fill="#0BA0D7" d="M754.567 344.289C764.088 350.562 766.714 360.32 765.513 371.232C764.475 368.991 763.633 366.654 762.757 364.343L756.531 349.404C755.661 348.146 755.056 345.824 754.567 344.289Z"/><path fill="#EDFFFE" d="M756.531 349.404L757.399 349.171C760.317 351.476 764.314 361.092 762.757 364.343L756.531 349.404Z"/><path fill="#FEFFFF" d="M736.092 374.985L740.22 364.473L743.739 373.032C744.342 374.597 745.334 376.403 744.879 377.903C744.076 377.801 743.527 377.7 742.734 377.532C747.657 382.195 750.016 385.26 751.495 392.099C750.19 395.245 750.223 393.168 748.601 395.536C749.893 395.316 750.989 395.087 752.267 394.795C753.78 395.935 754.543 398.002 754.367 399.865C749.474 402.551 745.789 397.59 740.875 399.822C739.868 400.28 738.321 400.134 737.191 400.063L734.824 399.884C732.042 400.107 727.838 400.033 724.948 400.073C727.033 395.305 728.424 392.447 731.011 387.935L731.689 385.674C733.129 382.1 734.597 378.537 736.092 374.985Z"/><path fill="#FEFFFF" d="M731.011 387.935C736.293 391.91 735.962 393.547 734.824 399.884C732.042 400.107 727.838 400.033 724.948 400.073C727.033 395.305 728.424 392.447 731.011 387.935Z"/><path fill="#0BA0D7" d="M731.689 385.674C738.083 389.151 738.687 393.513 737.191 400.063L734.824 399.884C735.962 393.547 736.293 391.91 731.011 387.935L731.689 385.674Z"/><path fill="#EDFFFE" d="M736.092 374.985L740.22 364.473L743.739 373.032C740.833 373.91 737.782 373.923 736.092 374.985Z"/><path fill="#2A424E" d="M444.85 335.833L465.633 335.781C470.175 346.707 474.797 357.6 479.499 368.458C480.906 371.759 485.721 382.813 486.375 385.661L487.294 387.501C493.628 403.726 503.768 428.409 511.09 443.776C503.02 444.099 495.35 444.06 487.29 444.011C484.316 436.978 480.112 427.629 477.764 420.545C462.557 420.364 447.348 420.363 432.141 420.542C429.016 427.988 425.125 436.648 422.27 444.086C414.569 444.027 406.544 443.849 398.869 444.014C406.594 425.486 415.738 406.35 422.88 387.648L423.98 385.188C430.679 368.924 438.586 352.089 444.85 335.833Z"/><path fill="#FEFFFF" d="M446.205 385.377C448.946 378.83 452.085 370.568 454.992 364.279C458.186 371.366 461.219 378.523 464.09 385.746L464.562 387.09C466.278 391.067 468.009 395.734 469.628 399.803L440.36 399.915C442.066 396.036 443.842 391.232 445.423 387.239L446.205 385.377Z"/><path fill="#FEFFFF" d="M446.205 385.377C448.946 378.83 452.085 370.568 454.992 364.279C458.186 371.366 461.219 378.523 464.09 385.746C458.13 385.535 452.168 385.412 446.205 385.377Z"/><path fill="#0BA0D7" d="M445.423 387.239L446.205 385.377C452.168 385.412 458.13 385.535 464.09 385.746L464.562 387.09C458.605 387.976 451.434 387.657 445.423 387.239Z"/><path fill="#FEFFFF" d="M535.68 335.751C542.65 336.412 551.063 336.003 558.175 335.883C558.215 349.468 558.078 363.439 558.306 376.989L558.257 380.237C561.29 383.27 568.174 389 572.724 388.57C575.122 386.912 575.117 385.341 575.113 382.528C575.094 367.817 578.976 371.607 590.493 370.778L593.936 371.653L594.18 372.29L592.644 373.523L594.649 375.493C593.485 376.166 592.466 375.818 590.905 375.715C597.478 379.925 602.14 385.558 605.554 392.585C605.291 398.8 605.085 404.165 605.275 410.371C603.343 413.318 602.193 414.832 599.904 417.52C599.088 419.396 598.73 420.518 597.403 422.104C596.093 423.993 595.019 425.65 593.404 427.312L591.67 429.659C590.033 432.165 589.075 433.609 587.126 435.871L586.166 436.375C586.131 434.847 586.1 433.896 585.902 432.385L585.248 431.947C578.284 443.748 571.396 444.84 558.423 441.875C557.595 443.135 557.683 443.472 556.527 444.012C550.007 443.782 542.259 444.046 535.65 444.11C535.727 435.09 535.713 426.07 535.607 417.051L536.061 415.27C535.234 410.899 535.764 385.388 535.528 378.546L535.365 377.508C535.87 375.282 535.632 364.937 535.607 362.163L535.35 357.944L535.193 354.107L535.668 352.495L535.68 335.751Z"/><path fill="#2A424E" d="M535.68 335.751C542.65 336.412 551.063 336.003 558.175 335.883C558.215 349.468 558.078 363.439 558.306 376.989L558.257 380.237C558.249 386.303 558.044 393.582 558.283 399.547L558.253 401.033C558.206 407.842 558.069 414.845 558.348 421.632L558.509 424.256C557.957 428.037 558.082 437.945 558.423 441.875C557.595 443.135 557.683 443.472 556.527 444.012C550.007 443.782 542.259 444.046 535.65 444.11C535.727 435.09 535.713 426.07 535.607 417.051L536.061 415.27C535.234 410.899 535.764 385.388 535.528 378.546L535.365 377.508C535.87 375.282 535.632 364.937 535.607 362.163L535.35 357.944L535.193 354.107L535.668 352.495L535.68 335.751Z"/><path fill="#0BA0D7" d="M597.191 394.871C593.202 390.067 583.617 388.227 584.358 379.471C586.11 379.94 587.817 384.932 588.919 386.665C593.461 388.97 598.036 390.767 599.477 396.245C601.12 402.489 599.124 410.913 599.904 417.52C599.088 419.396 598.73 420.518 597.403 422.104C597.877 416.721 598.468 399.623 597.191 394.871Z"/><path fill="#FEFFFF" d="M558.253 401.033C567.637 404.109 565.297 415.872 558.933 421.521L558.348 421.632C558.069 414.845 558.206 407.842 558.253 401.033Z"/><path fill="#EDFFFE" d="M597.191 394.871C598.468 399.623 597.877 416.721 597.403 422.104C596.093 423.993 595.019 425.65 593.404 427.312C593.624 422.451 594.421 408.968 593.467 404.573C595.155 404.298 595.356 404.35 596.673 403.352C597.691 401.082 597.147 397.579 597.191 394.871Z"/><path fill="#0BA0D7" d="M558.283 399.547C571.812 402.748 567.8 418.152 558.509 424.256L558.348 421.632L558.933 421.521C565.297 415.872 567.637 404.109 558.253 401.033L558.283 399.547Z"/><path fill="#0BA0D7" d="M593.467 404.573C594.421 408.968 593.624 422.451 593.404 427.312L591.67 429.659C591.584 424.582 590.417 408.038 593.467 404.573Z"/><path fill="#0BA0D7" d="M569.648 390.652C577.831 392.985 579.003 401.645 589.335 398.692C591.357 398.114 592.454 398.311 594.015 399.51C584.016 405.276 575.623 397.791 569.648 390.652Z"/><path fill="#2A424E" d="M601.725 361.887L605.008 362.152L606.755 362.174C609.733 362.89 610.063 363.12 612.455 365.002L614.379 367.475C618.172 375 623.167 384.165 628.423 390.762C631.686 386.303 639.038 375.912 640.678 370.77L642.42 368.815C644.181 367.244 645.935 366.044 647.849 364.687L650.398 364.986L653.775 364.157L656.709 363.501C660.466 363.505 664.766 363.617 668.466 363.303L669.092 365.336C667.683 366.916 666.445 368.185 665.324 369.994L665.061 371.282C662.041 374.235 651.281 389.408 649.397 393.157C649.574 395.937 649.337 399.464 652.781 399.798C656.401 398.244 657.73 394.098 659.607 390.868C662.295 386.242 661.242 385.592 666.914 385.825C670.896 383.564 668.924 380.19 671.806 375.948C673.502 377.278 672.659 382.302 671.287 383.803C666.041 389.538 660.075 388.947 659.461 398.217C658.796 408.255 659.672 418.134 659.171 428.153C662.99 434.476 665.663 438.689 670.829 444.115C667.313 444.19 661.138 444.509 657.863 444.019L656.315 444.391L648.751 444.289L647.04 443.534C645.91 441.815 644.463 440.348 643.074 438.821C642.792 438.531 640.788 437.152 640.334 436.83C635.751 429.537 631.309 421.459 626.786 413.999C623.305 419.072 616.266 428.866 614.01 434.181C613.67 434.703 612.476 436.445 612.313 436.904L608.82 439.913L606.985 439.466C604.24 439.353 602.443 439.082 599.888 440.094C598.514 440.656 598.405 440.339 596.654 440.053C594.5 440.784 594.588 441.32 592.988 443.27L590.462 443.77C589.185 440.437 590.853 438.813 589.057 436.122L587.126 435.871C589.075 433.609 590.033 432.165 591.67 429.659L593.404 427.312C595.019 425.65 596.093 423.993 597.403 422.104C598.73 420.518 599.088 419.396 599.904 417.52C602.193 414.832 603.343 413.318 605.275 410.371C605.085 404.165 605.291 398.8 605.554 392.585C602.14 385.558 597.478 379.925 590.905 375.715C592.466 375.818 593.485 376.166 594.649 375.493L592.644 373.523L594.18 372.29L593.936 371.653L590.493 370.778C589.553 369.843 589.941 370.406 589.801 368.682C587.788 366.13 587.042 365.743 584.316 363.931L584.333 362.363C588.379 363.076 596.984 363.946 600.974 362.942L601.725 361.887Z"/><path fill="#0BA0D7" d="M649.397 393.157C649.574 395.937 649.337 399.464 652.781 399.798C656.401 398.244 657.73 394.098 659.607 390.868C662.295 386.242 661.242 385.592 666.914 385.825C670.896 383.564 668.924 380.19 671.806 375.948C673.502 377.278 672.659 382.302 671.287 383.803C666.041 389.538 660.075 388.947 659.461 398.217C658.796 408.255 659.672 418.134 659.171 428.153C658.474 427.32 657.471 425.831 656.806 424.911C654.118 420.875 652.587 418.392 650.321 414.083C649.421 413.169 648.505 411.889 647.708 410.844C648.039 406.763 648.221 399.498 647.627 395.55L649.397 393.157Z"/><path fill="#FEFFFF" d="M649.984 400.041L657.032 400.305C657.188 406.262 657.702 419.526 656.806 424.911C654.118 420.875 652.587 418.392 650.321 414.083L649.984 400.041Z"/><path fill="#24ACD9" d="M605.554 392.585C608.388 395.74 609.51 397.363 611.827 400.941C609.766 404.854 608.262 407.056 605.275 410.371C605.085 404.165 605.291 398.8 605.554 392.585Z"/><path fill="#FEFFFF" d="M647.627 395.55C648.221 399.498 648.039 406.763 647.708 410.844L641.881 403.404C643.798 400.931 645.768 398.101 647.627 395.55Z"/><path fill="#2A424E" d="M822.608 336.083L845.261 336.069L845.219 418.898L845.386 421.037L845.38 444.007C837.857 444.064 830.182 443.933 822.647 443.883L822.657 420.653L822.701 419.076C822.712 410.389 822.678 401.702 822.598 393.015C822.543 388.188 821.94 382.938 822.655 378.292C822.469 376.805 822.607 375.178 822.657 373.657L822.608 336.083Z"/><path fill="#0BA0D7" d="M558.423 441.875C571.396 444.84 578.284 443.748 585.248 431.947L585.902 432.385C586.1 433.896 586.131 434.847 586.166 436.375L587.126 435.871L589.057 436.122C590.853 438.813 589.185 440.437 590.462 443.77L592.988 443.27C593.005 452.736 593.079 462.202 593.21 471.668C593.245 474.812 593.578 482.951 593.128 485.635C590.223 486.851 589.466 484.838 586.504 486.378C586.42 488.391 586.127 488.121 586.96 489.616C590.022 489.672 590.292 487.113 592.817 487.736C593.492 490.228 592.929 507.875 592.995 511.999C593.368 535.306 592.417 559.565 593.126 582.807C603.922 592.075 596.675 599.55 586.78 594.018C583.525 592.198 586.574 586.566 589.565 584.322C589.918 584.055 590.276 583.794 590.639 583.54C590.855 552.15 590.481 523.179 591.314 491.665L590.475 490.949L587.302 491.293L584.615 491.564C579.814 485.378 580.491 483.944 584.565 477.798C584.39 468.533 585.18 449.589 583.93 441.912C584.523 440.662 585.169 439.724 585.026 438.39C584.023 438.598 580.523 440.797 579.553 441.533C572.608 446.796 564.796 445.358 556.527 444.012C557.683 443.472 557.595 443.135 558.423 441.875Z"/><path fill="#FEFFFF" d="M587.126 435.871L589.057 436.122C590.853 438.813 589.185 440.437 590.462 443.77C591.131 447.633 591.633 476.873 590.234 478.87C588.445 478.354 588.521 478.419 587.175 477.151C586.459 471.939 586.611 441.645 587.126 435.871Z"/><path fill="#FEFFFF" d="M590.688 586.866C592.443 586.101 594.49 586.816 595.389 588.507C596.287 590.197 595.733 592.295 594.118 593.322C592.955 594.061 591.476 594.086 590.289 593.386C589.103 592.686 588.409 591.379 588.493 590.004C588.577 588.628 589.425 587.416 590.688 586.866Z"/><path fill="#0BA0D7" d="M659.973 236.03C640.367 220.01 682.688 218.648 662.381 236.068C662.014 247.84 663.453 265.333 661.449 276.35C662.705 276.324 664.014 275.764 665.255 275.412C672.576 273.447 676.607 279.035 677.996 285.692C680.079 295.679 676.429 310.63 665.118 313.444C664.075 313.704 661.893 313.743 660.98 313.121C663.858 310.303 668.487 310.747 672.001 306.224C677.647 298.955 678.877 284.964 671.174 278.684C668.317 276.354 665.226 277.082 661.805 277.468C661.704 282.366 662.308 288.501 661.388 293.233L661.296 293.692C660.664 297.013 658.845 299.512 657.048 302.381C657.141 312.357 655.882 325.98 657.933 335.806C658.418 338.129 661.76 338.358 663.786 337.314C663.405 335.669 660.206 334.264 660.207 333.545C660.209 330.9 661.8 318.894 662.132 316.126L662.679 316.042C663.54 321.479 663.226 325.249 663.239 330.693C665.299 333.914 668.572 337.41 666.134 340.931C661.737 342.763 654.888 338.014 654.905 333.372C654.947 322.152 654.373 310.468 655.679 299.357C655.767 298.609 659.05 294.552 659.718 293.729C660.002 288.719 659.901 282.322 659.961 277.204C651.049 281.225 649.006 283.254 642.564 290.451C643.243 314.443 643.141 344.778 642.42 368.815L640.678 370.77C639.606 345.495 640.529 316.154 640.307 290.298C646.125 282.42 650.65 278.236 659.985 275.025C659.914 262.027 659.91 249.029 659.973 236.03Z"/><path fill="#FEFFFF" d="M660.142 225.429C661.871 224.851 663.758 225.66 664.531 227.311C665.303 228.963 664.716 230.931 663.164 231.888C661.989 232.612 660.503 232.598 659.341 231.852C658.18 231.105 657.55 229.759 657.721 228.388C657.892 227.018 658.833 225.868 660.142 225.429Z"/><path fill="#0BA0D7" d="M691.579 281.681C694.125 282.627 695.882 283.143 697.641 285.413C701.072 289.84 699.882 290.231 705.379 289.911C712.107 289.52 716.972 292.127 720.736 297.529L768.836 297.571C771.162 295.016 772.782 292.954 776.349 292.572C779.953 292.186 782.712 296.778 781.925 299.794C779.195 310.255 771.889 304.578 767.967 299.876C753.102 299.721 737.441 300.157 722.724 299.749C723.501 307.205 726.95 310.363 728.778 318.207C737.382 317.961 742.037 319.216 746.916 326.844C747.722 327.007 748.688 327.255 749.487 327.278L750.835 329.116C750.783 332.197 750.876 332.953 751.484 335.981L748.129 335.761C743.437 335.854 738.745 335.84 734.054 335.719L732.463 335.268C733.739 333.532 736.465 326.176 736.12 324.087C735.214 318.611 729.685 320.362 725.844 321.017C726.176 313.554 725.717 313.927 720.866 308.67C717.39 305.16 721.465 305.814 721.094 304.077C718.713 292.941 709.218 291.862 701.954 291.792C703.083 293.79 703.98 296.165 704.289 298.426C704.853 302.552 707.109 300.983 710.24 303.462C711.222 305.509 711.178 304.757 711.063 306.858C710.483 307.26 708.821 308.382 708.709 308.873C707.951 312.217 711.985 324.939 712.837 328.465C712.232 330.105 712.204 330.426 711.088 331.716C710.354 327.602 707.26 311.712 705.024 309.074L703.655 310.241C699.263 305.829 707.431 292.397 690.796 283.773L691.579 281.681Z"/><path fill="#FEFFFF" d="M734.054 335.719C737.335 331.102 737.519 326.4 738.411 320.795C741.451 323.605 742.432 324.454 744.681 327.865L746.916 326.844C747.722 327.007 748.688 327.255 749.487 327.278L750.835 329.116C750.783 332.197 750.876 332.953 751.484 335.981L748.129 335.761C743.437 335.854 738.745 335.84 734.054 335.719Z"/><path fill="#0BA0D7" d="M746.916 326.844C747.722 327.007 748.688 327.255 749.487 327.278L750.835 329.116C750.783 332.197 750.876 332.953 751.484 335.981L748.129 335.761C747.927 332.259 746.598 330.717 744.681 327.865L746.916 326.844Z"/><path fill="#FEFFFF" d="M774.17 295.463C776.082 294.584 778.347 295.351 779.332 297.21C780.317 299.07 779.679 301.375 777.879 302.463C776.62 303.224 775.044 303.226 773.784 302.469C772.523 301.711 771.785 300.318 771.866 298.849C771.947 297.38 772.834 296.077 774.17 295.463Z"/><path fill="#0BA0D7" d="M640.334 436.83C640.788 437.152 642.792 438.531 643.074 438.821C644.463 440.348 645.91 441.815 647.04 443.534L648.751 444.289C649.613 450.594 649.535 456.612 650.376 462.49C663.234 462.702 675.673 462.721 688.555 463.13C689.901 461.643 692.224 459.211 693.365 457.711C693.53 454.967 694.271 446.648 693.67 444.5L693 444.086C694.359 444 695.673 443.825 697 444.079C696.301 444.333 696.347 444.388 695.731 444.836C695.818 449.676 695.863 454.516 695.865 459.357C692.13 464.252 691.429 465.595 688.472 471.055C674.42 471.731 656.525 471.237 642.306 471.171C639.52 461.409 640.38 447.48 640.334 436.83Z"/><path fill="#FEFFFF" d="M643.687 468.579C642.657 462.861 642.677 445.098 643.074 438.821C644.463 440.348 645.91 441.815 647.04 443.534C647.257 447.444 646.486 462.826 650.988 464.279C658.158 466.593 682.062 462.456 687.399 466.372L687.422 467.44C686.439 468.192 685.091 468.954 683.846 468.958C670.722 468.999 656.697 469.544 643.687 468.579Z"/><path fill="#0BA0D7" d="M557.368 298.747C559.197 285.775 560.572 286.187 572.627 281.581C575.118 280.629 576.377 278.314 579.502 277.932C580.631 278.756 580.567 278.965 581.046 280.27C587.769 279 587.867 272.445 598.678 274.501C610.675 276.783 606.275 290.225 607.047 299.987C607.714 308.416 606.51 319.068 607.019 327.685C606.756 339.046 607.425 350.861 606.755 362.174L605.008 362.152C604.534 345.368 604.394 328.575 604.588 311.785C604.618 304.884 606.033 283.203 602.198 278.568C595.435 275.158 587.974 274.144 584.218 282.67C581.507 288.824 584.22 298.672 586.279 304.773C587.779 309.155 593.232 313.714 593.63 315.094C583.654 318.247 580.173 286.38 579.928 281.174C579.62 280.967 579.311 280.761 579.003 280.555C570.008 282.514 574.601 299.276 575.718 305.795C576.947 312.963 580.62 320.556 586.924 324.502C590.586 326.801 592.994 323.137 594.336 327.283L593.865 328.146C590.955 328.746 587.365 327.059 584.936 325.517C573.189 318.06 570.761 297.018 572.135 284.206C564.796 286.22 557.566 289.477 560.612 298.709C562.725 305.112 575.81 313.285 565.331 318.71C564.431 319.134 564.325 318.793 563.355 318.395L563.908 317.928C565.091 316.919 566.563 315.905 566.617 314.273C566.927 304.956 556.963 301.766 549.859 299.894L549.716 298.89C551.677 297.737 555.073 298.417 557.368 298.747Z"/><path fill="#EDFFFE" d="M614.01 434.181C614.828 443.771 614.415 468.303 613.877 478.135C622.888 478.212 620.009 483.837 620.544 490.59L618.602 490.538C615.846 490.352 613.951 489.478 611.778 487.89L611.274 490.579L610.176 491.556L609.783 491.533C607.536 491.491 607.47 491.877 606.02 490.805C605.276 483.582 605.583 446.077 606.985 439.466L608.82 439.913L612.313 436.904C612.476 436.445 613.67 434.703 614.01 434.181Z"/><path fill="#0BA0D7" d="M606.985 439.466L608.82 439.913C607.869 445.145 607.826 482.351 608.365 488.882L609.003 489.718L609.783 491.533C607.536 491.491 607.47 491.877 606.02 490.805C605.276 483.582 605.583 446.077 606.985 439.466Z"/><path fill="#0BA0D7" d="M614.01 434.181C614.828 443.771 614.415 468.303 613.877 478.135L612.286 479.64C611.546 466.752 611.956 449.958 612.313 436.904C612.476 436.445 613.67 434.703 614.01 434.181Z"/><path fill="#FEFFFF" d="M613.877 478.135C622.888 478.212 620.009 483.837 620.544 490.59L618.602 490.538C615.846 490.352 613.951 489.478 611.778 487.89C611.765 484.823 611.652 483.451 612.481 480.485L610.91 479.663L612.286 479.64L613.877 478.135Z"/><path fill="#112B2B" d="M613.877 478.135C622.888 478.212 620.009 483.837 620.544 490.59L618.602 490.538C618.664 487.44 619.217 483.629 617.574 481.234C615.072 479.979 615.555 480.38 612.481 480.485L610.91 479.663L612.286 479.64L613.877 478.135Z"/><path fill="#023563" d="M609.003 489.718C609.898 486.099 608.933 480.476 610.171 478.72L610.91 479.663L612.481 480.485C611.652 483.451 611.765 484.823 611.778 487.89L611.274 490.579L610.176 491.556L609.783 491.533L609.003 489.718Z"/><path fill="#0BA0D7" d="M519.997 316.044L522.102 317.041C520.16 318.823 517.697 320.713 517.547 323.367C519.941 325.635 524.26 323.629 525.668 325.589C523.633 327.749 509.738 324.314 509.268 343.51C502.27 348.638 500.151 350.627 496.77 358.642L496.628 358.988L509.919 358.908L510.37 358.291C511.706 356.481 512.01 355.753 514.135 355.12C522.066 355.91 518.726 368.245 510.256 361.18C506.345 360.49 500.653 360.927 496.551 361.08C496.358 368.918 495.791 371.555 501.763 377.358C507.163 377.364 509.683 376.983 514.872 378.198L514.926 378.652C509.068 379.823 507.317 379.94 501.458 379.048C502.03 391.284 503.196 393.475 513.703 400.116C517.969 413.123 522.869 414.386 536.061 415.27L535.607 417.051C531.914 417.211 525.122 416.799 521.75 415.256C520.339 414.597 519.075 413.659 518.035 412.498C515.612 409.81 513.372 404.641 510.994 402.259C504.869 396.126 502.708 395.251 499.329 387.041C494.887 387.401 491.717 387.498 487.294 387.501L486.375 385.661C490.187 385.263 495.777 385.307 499.731 385.222C499.59 383.637 499.358 380.773 498.734 379.403C490.858 362.13 491.998 354.938 506.693 342.055C508.166 334.712 514.855 321.551 519.997 316.044Z"/><path fill="#0BA0D7" d="M611.833 261.11C593.106 244.194 634.637 244.77 614.838 261.142C614.066 296.45 615.107 332.127 614.379 367.475L612.455 365.002C612.017 330.998 613.054 294.77 611.833 261.11Z"/><path fill="#FEFFFF" d="M612.928 250.422C614.858 250.094 616.706 251.34 617.126 253.253C617.546 255.167 616.39 257.073 614.5 257.584C613.193 257.937 611.799 257.543 610.871 256.558C609.943 255.573 609.632 254.157 610.063 252.874C610.493 251.59 611.594 250.648 612.928 250.422Z"/><path fill="#0BA0D7" d="M646.659 491.021C648.55 492.707 648.749 493.961 648.814 496.479C649.067 506.296 649.068 516.322 649.046 526.154C649.021 537.103 649.509 548.221 649.449 559.117C670.085 574.665 626.966 576.044 647.015 558.874C647.039 543.205 646.971 527.537 646.812 511.869C646.763 507.593 646.829 494.773 646.065 491.388L646.659 491.021Z"/><path fill="#FEFFFF" d="M646.249 561.611C648.897 561.94 650.697 562.511 651.883 565.031C651.876 567.77 652.093 566.681 650.587 569.337C649.49 569.629 648.547 569.678 647.425 569.786C643.846 567.795 644.885 564.911 646.249 561.611Z"/><path fill="#0BA0D7" d="M708.585 442.959C708.657 449.27 708.908 456.607 708.61 462.83C704.533 466.369 698.636 471.22 695.036 474.995C694.737 480.921 694.356 535.017 695.322 537.257C697.993 536.843 699.003 532.352 700.619 533.318C700.756 535.642 700.798 536.027 700.131 538.242C697.924 539.838 692.723 539.472 689.759 539.343C688.43 538.503 688.911 539.07 688.343 537.527C690.58 534.956 692.354 538.964 692.393 533.735C692.541 513.935 691.82 493.568 692.937 473.814C696.958 469.944 701.914 465.309 706.354 461.931C706.603 455.695 706.692 450.436 706.55 444.202L708.585 442.959Z"/><path fill="#0BA0D7" d="M562.305 333.182C558.011 328.376 554.452 317.647 558.825 312.348C560.978 311.358 560.035 311.575 562.6 311.759C563.033 316.368 553.526 320.972 563.612 330.715L564.154 331.234C564.006 342.473 563.248 355.688 572.3 364.375C577.575 369.437 583.058 368.977 589.801 368.682C589.941 370.406 589.553 369.843 590.493 370.778C578.976 371.607 575.094 367.817 575.113 382.528C575.117 385.341 575.122 386.912 572.724 388.57C568.174 389 561.29 383.27 558.257 380.237L558.306 376.989C564.066 383.123 564.71 384.19 572.773 386.724C572.782 378.443 572.389 376.402 576.672 369.471C562.264 363.998 561.62 346.056 562.305 333.182Z"/><path fill="#0BA0D7" d="M611.778 487.89C613.951 489.478 615.846 490.352 618.602 490.538L620.544 490.59C622.162 496.159 621.44 522.448 621.164 529.893C635.74 549.227 599.099 542.682 617.577 529.971L618.732 529.165C619.332 520.232 619.338 501.299 618.717 492.289C615.519 491.832 614.883 491.659 611.887 490.452L611.274 490.579L611.778 487.89Z"/><path fill="#FEFFFF" d="M617.487 533.199C619.399 532.568 621.465 533.58 622.138 535.478C622.812 537.376 621.846 539.465 619.964 540.18C618.708 540.658 617.293 540.418 616.265 539.554C615.237 538.69 614.757 537.337 615.011 536.018C615.264 534.699 616.212 533.62 617.487 533.199Z"/><path fill="#0BA0D7" d="M691.008 330.878C688.597 328.242 685.88 325.737 686.159 321.833C686.527 316.702 694.041 315.954 696.317 320.037C698.147 323.323 695.179 326.733 692.846 328.777C694.469 345.802 688.881 377.76 665.061 371.282L665.324 369.994C672.139 369.864 677.362 369.413 682.438 364.167C689.849 356.508 691.4 343.575 691.103 333.408C691.078 332.564 691.046 331.721 691.008 330.878Z"/><path fill="#FEFFFF" d="M688.934 319.143C691.837 319.331 691.791 319.138 693.684 320.601C694.405 322.581 693.826 323.762 693.272 325.844C690.781 326.044 690.941 325.96 689.393 324.771C688.447 322.729 688.752 321.355 688.934 319.143Z"/><path fill="#0BA0D7" d="M422.88 387.648C412.386 387.632 393.096 387.261 381.965 388.045C379.839 389.393 378.826 392.972 376.045 393.197C369.724 393.709 366.199 385.794 371.19 381.495C372.554 380.332 374.349 379.807 376.125 380.051C379.461 380.485 381.032 382.841 383.046 385.298C395.786 385.938 411.195 385.464 423.98 385.188L422.88 387.648Z"/><path fill="#FEFFFF" d="M373.665 382.485C375.018 381.885 376.589 382.06 377.776 382.944C378.963 383.828 379.582 385.284 379.395 386.752C379.208 388.22 378.244 389.474 376.874 390.032C374.799 390.877 372.431 389.901 371.554 387.839C370.678 385.777 371.618 383.393 373.665 382.485Z"/><path fill="#0BA0D7" d="M596.654 440.053C598.405 440.339 598.514 440.656 599.888 440.094C599.005 451.775 600.899 526.824 598.76 531.621C596.198 529.098 597.236 510.1 597.259 505.2L597.367 463.735C597.406 457.017 597.911 446.518 596.654 440.053Z"/><path fill="#0BA0D7" d="M600.974 362.942C600.327 362.274 598.505 360.377 598.392 359.505C596.254 342.192 598.784 324.286 597.815 306.793C597.374 298.85 585.298 296.065 589.372 290.767C591.364 289.808 591.628 289.695 593.831 289.68C604.9 294.517 596.14 349.875 601.725 361.887L600.974 362.942Z"/><path fill="#0BA0D7" d="M493.03 315.887C490.374 318.915 484.556 323.844 481.74 319.629C476.77 312.191 485.291 300.757 492.628 313.366L520.198 313.642L518.862 315.682C511.006 316.022 501.177 315.723 493.03 315.887Z"/><path fill="#FEFFFF" d="M484.272 310.983C485.608 310.361 487.18 310.529 488.355 311.419C489.53 312.31 490.116 313.778 489.879 315.233C489.641 316.689 488.619 317.894 487.222 318.365C485.22 319.04 483.039 318.032 482.255 316.07C481.471 314.108 482.356 311.875 484.272 310.983Z"/><path fill="#0BA0D7" d="M697.36 382.746C702.344 382.794 705.522 382.757 710.474 383.592L709.176 386.13C695.123 379.898 688.733 391.295 686.49 403.057C702.9 413.078 676.798 423.642 682.162 406.298C685.703 394.85 686.571 389.115 697.36 382.746Z"/><path fill="#FEFFFF" d="M685.116 406.834C686.688 406.151 688.516 406.87 689.202 408.441C689.888 410.012 689.174 411.842 687.605 412.532C686.031 413.224 684.194 412.507 683.505 410.931C682.817 409.355 683.538 407.519 685.116 406.834Z"/><path fill="#0BA0D7" d="M647.849 364.687C647.889 357.172 647.924 294.224 648.972 292.69L650.119 292.579C652.414 295.719 649.339 354.975 650.398 364.986L647.849 364.687Z"/><path fill="#0BA0D7" d="M866.759 418.658C884.913 399.583 881.31 443.211 866.538 421.109C860.564 421.076 851.062 420.707 845.386 421.037L845.219 418.898C851.938 418.862 860.16 419.038 866.759 418.658Z"/><path fill="#FEFFFF" d="M871.66 417.115C872.887 416.389 874.414 416.394 875.637 417.128C876.86 417.862 877.582 419.207 877.519 420.632C877.456 422.057 876.617 423.333 875.334 423.956C873.46 424.866 871.201 424.135 870.215 422.299C869.229 420.463 869.866 418.176 871.66 417.115Z"/><path fill="#070C0E" d="M556.889 477.794C558.719 478.06 562.047 478.915 564.002 479.331C566.011 482.3 565.483 490.564 563.278 493.465C561.533 495.76 554.704 495.342 552.892 493.559L553.486 492.38C556.047 492.957 558.455 493.676 560.967 493.082C562.417 491.878 563.73 490.47 563.113 488.563C552.054 492.549 547.231 482.573 556.889 477.794Z"/><path fill="#FEFFFF" d="M556.769 479.961C558.215 479.294 559.911 479.474 561.186 480.429C562.461 481.385 563.11 482.963 562.876 484.539C562.641 486.116 561.562 487.437 560.065 487.981C557.879 488.775 555.456 487.703 554.572 485.552C553.687 483.4 554.656 480.934 556.769 479.961Z"/><path fill="#112B2B" d="M770.249 472.137C772.3 473.93 772.382 489.365 770.795 491.277C766.46 487.984 768.821 492.971 761.023 490.501C759.896 488.947 758.205 484.678 758.333 482.852C758.669 478.073 766.195 478.866 768.933 479.095C769.551 478.219 769.717 474.438 770.14 472.593L770.249 472.137Z"/><path fill="#FEFFFF" d="M764.035 480.256C766.495 479.491 769.11 480.863 769.881 483.322C770.651 485.781 769.285 488.4 766.828 489.176C764.363 489.953 761.736 488.582 760.963 486.116C760.191 483.649 761.567 481.024 764.035 480.256Z"/><path fill="#24ACD9" d="M584.615 491.564L587.302 491.293C585.259 494.799 588.598 534.517 586.284 543.03L585.41 543.282C583.443 540.787 584.146 497.708 584.615 491.564Z"/><path fill="#112B2B" d="M454.253 472.734C456.972 474.376 461.862 486.784 463.126 490.272L462.73 491.056C459.263 490.273 462.096 486.893 456.27 486.717C449.975 486.426 451.976 487.119 446.466 490.631C446.708 488.066 452.757 475.26 454.253 472.734Z"/><path fill="#FEFFFF" d="M454.192 476.956C455.918 478.255 457.597 482.072 457.966 484.183L457.083 484.733C455.196 484.763 453.701 485.041 452.183 484.064C451.699 481.765 453.166 479.452 454.192 476.956Z"/><path fill="#112B2B" d="M526.98 473.139C528.618 473.654 529.059 474.106 529.752 475.596C531.059 478.404 536.547 488.385 535.801 490.997L534.851 490.934C533.761 489.203 533.198 488.262 531.843 486.68L530.308 486.602C524.13 486.259 525.298 486.265 519.952 490.457L519.627 490.199C522.004 484.155 524.248 479.037 526.98 473.139Z"/><path fill="#FEFFFF" d="M527.552 476.468C529.134 478.212 530.807 481.808 531.065 484.172L530.196 484.767C527.695 484.828 526.168 485.472 525.002 483.124C525.559 480.83 526.607 478.638 527.552 476.468Z"/><path fill="#0BA0D7" d="M772.615 323.14C777.329 320.566 784.602 324.441 782.42 330.114C780.693 334.605 773.608 337.686 771.354 332.097L772.33 330.269C771.606 328.655 772.059 326.755 773.434 325.643L772.615 323.14Z"/><path fill="#FEFFFF" d="M773.434 325.643C774.73 324.595 776.55 324.488 777.96 325.377C779.37 326.267 780.058 327.955 779.671 329.577C779.284 331.198 777.908 332.394 776.248 332.55C774.589 332.707 773.014 331.789 772.33 330.269C771.606 328.655 772.059 326.755 773.434 325.643Z"/><path fill="#0BA0D7" d="M683.617 283.853L687.355 285.544L688.13 284.841C689.714 286.101 691.434 288.488 692.743 290.133C691.642 291.998 690.098 294.118 688.851 295.931L688.699 298.529C688.303 304.698 686.088 316.301 677.582 315.703C678.358 313.318 682.642 311.95 684.657 307.674C688.609 299.281 686.083 291.93 683.617 283.853Z"/><path fill="#112B2B" d="M808.457 478.755C809.495 478.591 810.536 478.454 811.581 478.344C818.884 477.615 821.418 486.733 817.541 491.281L815.629 490.304C813.484 491.113 812.606 491.33 810.352 491.778C808.452 490.357 807.151 488.916 807.217 486.462C809.172 483.46 812.466 483.343 816.225 482.444L816.191 481.492C813.893 480.013 812.344 480.836 809.078 480.144L808.457 478.755Z"/><path fill="#FEFFFF" d="M810.819 484.494C813.368 484.372 814.485 484.202 816.412 485.522C816.4 487.845 816.407 487.117 814.909 489.388C812.249 489.664 811.768 489.662 809.847 488.488C809.493 486.161 809.53 486.984 810.819 484.494Z"/><path fill="#0BA0D7" d="M656.315 444.391L657.863 444.019C658.724 452.698 659.374 456.202 669.887 455.683C674.45 455.458 679.378 455.406 683.968 455.365C684.605 451.454 684.609 449.274 686.489 445.761L687.022 446.222C687.653 457.842 685.396 457.479 674.345 457.665C669.439 457.748 662.928 457.681 658.563 455.485C656.07 452.918 656.44 448.069 656.315 444.391Z"/><path fill="#0BA0D7" d="M524.047 343.137C523.739 343.144 523.431 343.146 523.123 343.143C518.873 343.084 516.399 341.956 516.734 337.383C518.607 334.047 520.889 333.582 524.074 335.242C526.137 337.699 524.791 340.726 525.527 341.578C528.697 345.247 532.335 348.888 535.668 352.495L535.193 354.107C531.304 350.159 528.103 347.568 524.047 343.137Z"/><path fill="#0BA0D7" d="M535.528 378.546C533.878 380.853 530.492 384.119 528.454 386.414C525.103 390.191 521.456 397.231 516.067 397.079L514.934 395.871C513.261 389.76 515.075 387.945 521.028 388.999C523.617 389.458 532.679 379.632 535.365 377.508L535.528 378.546Z"/><path fill="#0BA0D7" d="M712.837 328.465L713.332 332.631L714.933 333.449C713.412 335.191 709.179 339.216 709.839 341.379C712.853 341.864 713.427 341.707 714.637 344.398C714.679 348.332 713.321 349.723 709.573 349.809C707.013 348.343 707.31 347.54 707.646 344.613C708.146 340.26 706.69 342.528 705.273 340.764C706.5 337.044 709.982 337.37 711.088 331.716C712.204 330.426 712.232 330.105 712.837 328.465Z"/><path fill="#0BA0D7" d="M528.104 315.03L527.119 313.603L528.628 313.285C531.917 307.775 539.273 280.866 550.144 287.207L549.883 288.06C548.74 288.631 543.477 290.916 542.953 291.362C536.664 296.706 532.729 306.396 530.839 314.144L535.095 319.378C532.906 318.472 530.325 317.521 528.335 316.303L528.104 315.03Z"/><path fill="#0BA0D7" d="M684.217 388.891C684.646 389.374 684.454 389.15 684.509 390.046C681.165 392.746 671.661 401.745 668.787 402.948C666.623 403.026 666.347 402.773 664.534 401.537C664.083 398.627 663.707 397.428 665.675 395.214C667.695 394.608 669.62 395.545 671.751 396.219C673.778 395.848 681.632 390.478 684.217 388.891Z"/><path fill="#0BA0D7" d="M533.857 318.269C536.243 320.175 538.115 321.606 540.645 323.308L541.262 322.96L543.079 321.882C544.42 325.419 545.008 326.664 546.93 329.908L543.147 332.851C540.62 334.822 538.039 334.969 535.867 332.652C534.716 328.533 537.038 327.01 540.558 325.942C539.904 323.993 535.512 319.936 533.857 318.269Z"/><path fill="#24ACD9" d="M540.558 325.942C540.723 329.581 537.379 329.076 538.157 331.86C540.113 332.881 540.957 332.753 543.147 332.851C540.62 334.822 538.039 334.969 535.867 332.652C534.716 328.533 537.038 327.01 540.558 325.942Z"/><path fill="#0BA0D7" d="M584.316 363.931C573.413 359.618 571.204 350.039 569.739 339.18C569.497 337.391 570.204 336.399 571.35 335.238L572.142 335.411C573.22 337.992 572.693 340.805 572.921 343.587C573.527 350.971 577.544 358.863 584.333 362.363L584.316 363.931Z"/><path fill="#0BA0D7" d="M668.466 363.303C674.515 360.479 676.296 358.847 678.953 352.672C681.304 347.21 679.871 338.73 681.22 335.603L682.17 335.679C683.972 338.57 682.402 347.446 681.588 350.87C680.335 356.14 679.54 359.069 674.877 361.962C672.969 363.121 671.04 364.246 669.092 365.336L668.466 363.303Z"/><path fill="#112B2B" d="M673.095 477.48L674.156 478.037C675.071 481.134 670.409 492.862 666.968 494.83C664.696 495.037 665.391 495.276 663.524 494.39L663.477 493.678C664.781 492.861 665.163 492.892 666.734 492.611L667.238 492.524C668.122 490.843 667.906 491.515 667.426 489.229C665.917 486.222 664.036 483.076 663.753 479.767L664.358 479.543C666.63 481.874 667.858 485.519 669.14 488.581C670.459 485.417 671.898 480.839 673.095 477.48Z"/><path fill="#070C0E" d="M736.744 477.848C743.789 478.259 743.824 489.552 740.852 491.073C739.091 488.852 742.814 483.341 736.691 478.852C730.606 483.823 734.978 485.556 732.761 490.867L731.701 491.02C730.878 489.057 730.676 480.432 732.354 479.09C734.503 479.275 734.951 479.023 736.744 477.848Z"/><path fill="#0BA0D7" d="M772.615 323.14L773.434 325.643C772.059 326.755 771.606 328.655 772.33 330.269L771.354 332.097C767.785 327.434 756.942 329.263 750.835 329.116L749.487 327.278C755.14 327.03 762.339 327.241 768.11 327.246L772.615 323.14Z"/><path fill="#0BA0D7" d="M686.084 444.51C671.281 443.961 665.815 424.58 671.214 423.007C672.63 425.151 671.572 430.754 673.531 434.404C676.348 439.654 679.287 440.779 684.529 442.892L686.084 444.51Z"/><path fill="#112B2B" d="M646.065 491.388C637.745 492.774 633.545 485.012 639.377 479.189C640.984 477.585 646.139 477.74 647.523 480.467C644.589 480.659 641.985 479.836 639.895 480.966C637.905 483.999 638.399 486.547 640.931 489.057C642.682 489.778 645.655 489 647.707 488.679L648.092 489.25L646.659 491.021L646.065 491.388Z"/><path fill="#0BA0D7" d="M541.262 322.96C541.119 318.299 537.902 310.593 539.591 305.334C540.224 303.362 542.258 298.554 544.053 297.557C544.744 299.401 543.344 301.556 542.632 303.604C540.378 310.096 541.304 315.284 543.079 321.882L541.262 322.96Z"/><path fill="#0BA0D7" d="M535.35 357.944L535.607 362.163C528.837 367.395 531.382 370.23 528.679 377.905C526.855 375.316 527.426 370.861 527.79 367.951C531.194 362.192 534.616 362.584 535.35 357.944Z"/><path fill="#0BA0D7" d="M683.617 283.853C682.802 281.336 681.052 279.975 679.238 277.822C681.088 277.067 687.278 280.758 690.894 281.538L691.579 281.681L690.796 283.773L688.13 284.841L687.355 285.544L683.617 283.853Z"/><path fill="#112B2B" d="M711.776 473.191C714.882 474.812 713.573 488.192 713.09 491.726L711.941 491.127C710.267 488.818 711.443 476.394 711.776 473.191Z"/><path fill="#0BA0D7" d="M703.511 444.098L704.386 444.405C703.914 446.733 703.404 449.053 702.855 451.364C702.27 453.781 701.404 457.649 699.255 458.967C697.784 455.424 701.846 447.318 703.511 444.098Z"/><path fill="#112B2B" d="M480.916 473.289L481.683 473.682C483.431 476.285 482.543 488.053 482.356 491.791C481.882 491.607 481.008 491.32 480.89 490.875C479.93 487.254 480.661 476.59 480.916 473.289Z"/><path fill="#0BA0D7" d="M712.971 377.277C707.201 376.231 700.777 374.147 698.023 368.55L698.622 367.686C702.346 372.633 707.824 374.077 713.739 375.325L712.971 377.277Z"/><path fill="#112B2B" d="M788.943 477.904L790.006 478.331C791.795 480.896 790.916 488.083 790.727 491.524C789.991 491.278 789.928 491.109 789.272 490.613C788.693 487.489 788.922 481.299 788.943 477.904Z"/><path fill="#0BA0D7" d="M520.198 313.642C522.371 313.614 524.58 313.372 526.512 314.261L526.973 314.47C527.35 314.657 527.727 314.843 528.104 315.03L528.335 316.303C526.189 316.496 524.226 316.634 522.102 317.041L519.997 316.044L518.862 315.682L520.198 313.642Z"/><path fill="#0BA0D7" d="M723.375 324.684C721.537 328.036 717.875 330.942 714.933 333.449L713.332 332.631C717.103 328.515 718.53 327.429 723.375 324.684Z"/><path fill="#0BA0D7" d="M653.775 364.157C653.793 361.878 653.693 357.926 655.218 356.2C656.847 359.666 654.989 360.633 656.709 363.501L653.775 364.157Z"/></svg>